<svg width="121" height="121" viewBox="0 0 121 121" fill="none" xmlns="http://www.w3.org/2000/svg">
<path d="M79.672 111.184C81.5237 106.962 84.0648 102.389 87.2817 97.4541C90.5121 92.5189 93.702 87.8526 96.8648 83.4553C100.028 79.0579 102.866 75.1447 105.38 71.6887C107.894 68.2461 109.435 65.9332 110.043 64.7363C108.367 65.8121 106.191 67.2107 103.501 68.932C100.812 70.6532 98.0677 72.2535 95.2563 73.7462C92.4449 75.2388 89.7552 76.3012 87.1871 76.9601C84.6189 77.6191 82.551 77.3501 81.0101 76.1533C80.9425 76.0995 80.8749 76.0322 80.8074 75.965C79.4963 77.1618 77.604 78.9638 75.1034 81.4113C72.3596 84.0873 69.4536 86.7903 66.4124 89.5201C63.3712 92.25 60.4382 94.6571 57.6268 96.7414C54.8154 98.8258 52.6392 99.8612 51.0849 99.8612C47.9761 99.8612 45.7324 99.1485 44.3672 97.7231C42.9885 96.2977 42.1505 94.5495 41.8532 92.4651C41.5558 90.3942 41.6099 88.1619 42.0289 85.7817C42.4479 83.4015 43.0156 81.2095 43.7319 79.1924C41.5828 80.7389 38.839 82.4871 35.487 84.4504C32.1349 86.4137 28.8639 88.135 25.6335 89.6142C22.4031 91.1069 19.5106 92.1693 16.9425 92.8282C14.3744 93.4871 12.793 93.272 12.1983 92.2096C11.0088 89.9504 10.9683 87.3416 12.1036 84.3697C13.239 81.3978 15.1448 78.399 17.8346 75.3733C20.5244 72.3476 23.7818 69.3488 27.5934 66.3769C31.4185 63.405 35.3248 60.8231 39.3256 58.6177C43.3265 56.4258 47.3003 54.691 51.247 53.4539C55.1938 52.2033 58.5864 51.7595 61.4654 52.1226C64.5742 52.4856 66.507 53.5749 67.291 55.4172C68.0614 57.2595 66.899 60.6752 63.7902 65.6642C63.3172 66.3769 62.7765 66.861 62.1818 67.0897C61.5871 67.3317 61.4654 66.8476 61.8304 65.6642C63.3847 61.2669 63.1415 58.4698 61.114 57.2864C59.6813 56.4527 57.5592 56.4796 54.7478 57.3805C51.9364 58.2681 48.8411 59.6666 45.435 61.5627C42.0289 63.4588 38.5417 65.7583 34.9598 68.421C31.378 71.097 28.0935 73.7731 25.1064 76.4491C22.1193 79.1252 19.6728 81.6802 17.767 84.1142C15.8612 86.5482 14.8475 88.4846 14.7258 89.9101C16.1586 89.7891 17.9562 89.2243 20.1053 88.2157C22.2544 87.2071 24.5522 86.0238 26.9987 84.6521C29.4452 83.2939 31.9322 81.855 34.4327 80.3758C36.9467 78.8966 39.204 77.5787 41.2449 76.4491C43.2724 75.3195 45.0025 74.4858 46.4352 73.9479C47.868 73.41 48.76 73.4369 49.125 74.042C50.0846 75.5885 50.382 77.7266 50.0171 80.4565C49.6521 83.1863 49.2737 85.8086 48.8547 88.2964C48.4356 90.7976 48.341 92.8685 48.5843 94.536C48.8276 96.2035 50.0171 96.7414 52.1662 96.1363C54.91 94.8319 57.7755 93.0434 60.7626 90.7842C63.7497 88.525 66.5611 86.2389 69.1833 83.9259C71.8054 81.613 74.0492 79.4479 75.9009 77.4173C77.5905 75.5616 78.6312 74.2975 79.0772 73.531C78.6853 72.4956 78.5501 71.2853 78.6718 69.9271C78.9151 67.1972 79.6584 64.306 80.9155 61.2803C82.1725 58.2546 83.6863 55.2558 85.484 52.2839C87.2817 49.312 88.7685 46.878 89.9579 44.9819C89.9579 44.9819 93.337 39.065 97.2297 39.065C101.122 39.065 102.19 40.1139 98.9193 44.9819C98.9193 45.103 98.8517 45.224 98.7436 45.3316C98.2705 45.9233 97.4595 46.9318 96.3241 48.3573C95.1888 49.7827 93.9317 51.383 92.5666 53.1715C91.1879 54.96 89.7552 56.8561 88.2684 58.8732C86.7681 60.8903 85.4975 62.8268 84.4162 64.6691C83.3484 66.5114 82.5645 68.1789 82.0914 69.6581C81.6183 71.1508 81.6183 72.2401 82.0914 72.9528C83.0511 74.2572 84.7541 74.5261 87.2006 73.7596C89.6471 72.9931 92.3098 71.7694 95.1752 70.1019C98.0407 68.4344 100.879 66.7131 103.691 64.938C106.502 63.1495 108.732 61.9124 110.408 61.1996C111.598 60.4869 112.679 60.1642 113.639 60.218C114.598 60.2852 115.396 60.5407 116.058 61.0248C116.707 61.4955 117.193 62.1006 117.491 62.8133C117.788 63.5261 117.761 64.185 117.396 64.7767C117.031 66.2021 115.788 68.6765 113.639 72.1728C111.49 75.6826 108.894 79.6631 105.84 84.1142C102.798 88.5653 99.6627 93.2047 96.4323 98.0189C93.2019 102.833 90.3634 107.23 87.917 111.211C87.0925 112.556 86.3626 113.793 85.6867 114.976C106.191 105.281 120.356 84.5042 120.356 60.4197C120.356 27.0295 93.1883 0 59.6677 0C30.2696 0 5.75096 20.8033 0.168701 48.4245C4.91295 36.3352 13.5634 25.6713 25.6335 18.5172C30.6481 15.5453 35.9195 13.3937 41.299 11.9952C38.5687 13.1113 35.8925 14.4292 33.2973 15.9756C5.44008 32.4757 -4.30522 67.6813 10.5898 95.8942C21.6192 110.955 39.4878 120.759 59.6542 120.759C65.8042 120.759 71.7379 119.844 77.3336 118.15C77.7797 116.025 78.5501 113.712 79.6585 111.184H79.672Z" fill="#9A7194"/>
</svg>
