<svg width="320" height="71" viewBox="0 0 320 71" fill="none" xmlns="http://www.w3.org/2000/svg">
<path d="M58.0529 0.534944C58.2827 0.615629 58.4449 0.803896 58.5124 0.924923C58.553 0.965266 58.7017 1.15353 58.7422 1.15353L58.9314 1.46283L59.1207 1.96038L59.1612 2.72689L59.2018 2.9555V3.34548L59.0531 3.53374V3.57409C58.7017 4.5692 58.6611 4.64989 58.6611 4.69023L58.6206 5.1071L58.3502 5.645L58.2286 6.26359C58.1881 6.34427 58.1475 6.53253 58.1475 6.57288L58.0259 6.84183L57.715 7.33938L57.5257 7.83695L56.904 8.76483L56.7823 8.99343L56.512 9.67926L56.4715 9.82718L56.12 10.4861L55.9714 10.634L54.8495 13.1353C54.809 13.2832 54.6197 13.6732 54.5792 13.7539C54.5521 13.8076 54.5386 13.848 54.5386 13.8749L54.2683 14.3321L54.0791 14.7893C53.9574 15.0179 53.8087 15.2465 53.7682 15.4079L53.6195 15.6365C52.8085 17.2099 52.8085 17.2502 52.8085 17.2502L52.7274 17.6402L52.6463 17.7881L52.6058 18.0571L52.5247 18.2857L52.2544 18.8236L52.0651 19.1329L51.565 19.6304L50.673 21.3248C50.673 21.4458 50.6324 21.5938 50.6324 21.7148L50.2404 22.1316V22.2527L49.889 23.2209L49.7674 23.3688L49.5376 23.7857H49.8485L50.1593 23.705L50.4702 23.6647L50.8622 23.705L51.1731 23.7857H51.5245L51.7137 23.7454L52.1327 23.7857H52.8221C52.9437 23.7857 53.0518 23.826 53.1735 23.826H53.5249C53.6465 23.826 53.8358 23.8664 53.9439 23.8664C54.1331 23.9067 54.3359 23.9471 54.3629 23.9471L54.4846 23.9067L54.7143 23.8664L55.2955 23.9471L55.4172 23.9067H55.7281L55.8497 23.8664L56.2687 23.9471H56.458L56.7688 23.9067L56.9581 23.9471L57.0797 23.9874H57.2689L57.3906 24.0278C57.4717 24.0278 57.7015 24.0278 57.8907 24.0681C57.9718 24.0681 58.0799 24.1084 58.161 24.1084H58.3097L58.4313 24.0681H58.7422L59.2018 24.216C59.2829 24.2564 59.3234 24.2564 59.391 24.2564L59.7424 24.2967H60.0128L60.1344 24.3774H60.594C60.7832 24.4581 61.2563 24.4984 61.6753 24.5657L61.9861 24.7136L62.1348 24.8346V25.1842L62.0537 25.4128L61.905 25.4935H61.5536L61.3644 25.4128L61.1752 25.4532L60.6345 25.3725L59.8235 25.2918H59.5532C58.8233 25.2111 58.1205 25.1708 57.4987 25.1439H56.7688C56.3769 25.1036 56.0389 25.1035 55.7281 25.1035H54.4575L53.6465 25.1842L53.3357 25.1439H52.9167L52.6463 25.1842L52.3355 25.2246L52.1868 25.1842L51.5245 25.2246H51.2542L50.5919 25.2649L48.6185 25.3053C48.5374 25.3859 48.4698 25.4532 48.4698 25.4935L47.6588 26.9997L46.7667 28.6537C46.6856 29.0437 46.4558 29.4605 46.2666 29.8774L46.0774 30.2943C45.9963 30.4826 45.8071 30.7515 45.6584 30.9129L45.5773 30.9936L44.1851 33.7638C44.0634 33.952 43.9959 34.1537 43.9148 34.3823L43.4958 35.0413C43.2254 35.5792 42.9551 36.1171 42.7253 36.7357L42.6037 36.8567L42.2523 37.5829L42.0225 38.1207L41.7927 39.0486L41.6035 39.089C41.5224 39.1697 41.4818 39.21 41.4818 39.2772L40.8601 40.7027L40.7114 40.9716C40.7519 41.0926 40.7114 41.0927 40.7114 41.0927V41.3616L40.5222 41.5499L40.0626 42.6257L39.8328 43.2039L39.7112 43.6611V43.7418L39.4409 44.468L39.2922 44.8176C39.2111 44.9655 39.0624 45.2748 39.0218 45.4362L38.9813 45.5169C38.9813 45.5976 38.9407 45.6648 38.9407 45.7052L38.6299 46.5523C38.6704 46.902 38.5893 46.9692 38.5082 47.1709C38.4271 47.3592 38.3595 47.5206 38.319 47.7088L38.1703 48.0585C38.0892 48.3274 38.0216 48.5964 38.0216 48.946L37.873 49.1746C37.7243 49.9815 37.5621 50.7076 37.3323 51.3665C37.2917 51.5145 37.1836 51.7162 37.1431 51.9045C37.1025 52.1331 37.062 52.402 37.062 52.6306C37.062 52.9802 37.062 53.2492 36.9809 53.4778C36.8322 53.6257 36.7511 53.7871 36.7105 53.8947C36.67 54.0157 36.6294 54.1233 36.4402 54.3116L36.0482 54.6612C35.8185 54.8495 35.6292 55.0108 35.0886 54.5402C34.8993 53.7736 35.1291 53.1954 35.3995 52.5365L35.5887 51.8776C35.6292 51.7296 35.7374 51.4607 35.8996 51.1514C36.0482 50.8018 36.251 50.3445 36.251 49.9949L36.6024 48.9594C36.9538 47.7223 37.3323 46.5792 37.7243 45.4227L37.954 44.5756L38.4947 43.2712C38.6164 42.8812 38.8056 42.4643 38.9137 42.1147C38.9543 41.9667 39.0624 41.8054 39.1029 41.6574L39.9545 39.8151C40.0356 39.5865 40.1032 39.5462 40.1842 39.3176L40.6438 38.2418L40.7655 38.0535C40.7655 37.9728 40.8466 37.8652 40.8871 37.7846L41.4683 36.5205L41.5494 36.3322V36.1036L41.8603 35.6061L41.9008 35.5657C41.9008 35.5119 41.9279 35.4626 41.9819 35.4178C41.9819 35.1489 42.1036 34.8799 42.2523 34.6513L42.3739 34.611L42.6037 34.1941C42.8335 33.6965 43.1849 32.9972 43.3741 32.4997L44.2662 30.8053C44.3067 30.6574 44.5365 30.2271 44.6176 30.106C45.0096 29.2185 45.0366 29.1781 45.3881 28.573L45.7395 27.7258L45.9287 27.309L46.2396 26.6904L46.4288 26.2735L46.8884 25.8163L47.01 25.5473C46.8613 25.5877 46.618 25.5877 46.5099 25.628L45.7395 25.7759C45.3205 25.6549 44.8474 25.628 44.6582 25.628L41.3737 25.8566H41.4142C41.225 25.897 40.7519 25.9373 40.5222 25.9373C39.941 26.1659 39.4814 26.0852 38.9002 26.0583C38.7785 26.0987 38.5893 26.0987 38.4812 26.0987C38.4001 26.0987 38.3325 26.139 38.2514 26.139L37.5891 26.1794H37.6297L34.7642 26.5693L34.0613 26.6904L33.2098 26.8114L32.5881 26.9324H31.9663L31.6149 26.8921C29.3712 27.2014 26.9382 27.5107 24.6945 27.8872L23.7213 28.0755L23.0996 28.1561L22.2886 28.1965L21.3154 28.3444L20.153 29.6085C19.3826 30.6843 18.1796 31.9483 17.2605 32.8762L16.8415 33.3738C16.8415 33.3738 16.6928 33.562 16.6523 33.6831C16.463 34.073 16.0305 34.6109 15.5709 35.0682L14.0571 36.9105C13.6651 37.4484 13.3272 37.8652 12.8271 38.5242L12.5162 38.8738L11.7458 39.8689L11.3944 40.3665L10.624 41.2137L10.4753 41.3616C10.4347 41.5095 10.286 41.8188 10.2455 41.9398L10.0563 42.0205L9.74539 42.5181L9.62374 42.8274L9.5021 43.0963L9.23177 43.3249C9.04254 43.7149 9.00199 43.7149 8.88034 43.8628L8.56947 44.2125C8.48837 44.3335 8.33969 44.5621 8.25859 44.7504C7.98826 45.2479 7.67739 45.8262 6.98805 46.5255L5.94729 47.6416L5.67696 47.9509L5.55532 47.9912L5.20389 48.2198L4.93356 48.3005H4.62269L4.27126 47.9509L4.19016 47.6416L4.14961 47.4533L4.19016 47.1037L4.23071 46.9558L4.27126 46.6465L4.41994 46.2296V46.0817L4.56862 45.7724V45.6917L4.75785 45.3421L4.98763 45.0328L5.10928 44.7638L5.2985 44.5352L5.56883 44.0377L5.98784 43.4191L6.71772 42.5719C6.83937 42.424 7.0286 42.1147 7.06915 41.9936L7.46112 41.7247L8.12343 41.0389L8.74518 40.3396L9.16419 39.8017L10.0968 38.6855L10.2455 38.5376L10.3942 38.2687L10.8943 37.6501L11.3133 37.1525L11.8134 36.7357L12.354 36.1574L12.8542 35.6195L13.2056 35.2026L13.5976 34.8127L13.949 34.4227C14.0977 34.2344 14.4085 33.8444 14.6113 33.6562L14.9627 33.2393C14.9627 33.1183 15.0438 32.8224 15.3547 32.7417L15.4358 32.6207L15.8278 32.2711C15.9494 32.15 16.017 32.0021 16.1386 31.8542L16.4495 31.5046L17.2605 30.5498L17.9228 29.8236L18.4229 29.2857L18.7743 28.7882L18.3823 28.8285L17.2605 29.0975L16.4495 29.2454L15.5574 29.3664C15.0979 29.4471 14.6248 29.595 14.1247 29.6757L13.0434 30.0926C12.692 30.2405 12.273 30.3212 11.9215 30.3615C11.6106 30.4422 11.2998 30.4826 10.8808 30.5901C9.84 30.6305 8.82628 30.9398 7.82607 31.2491C7.51519 31.3298 7.24486 31.4777 6.93399 31.5584C6.27168 31.9483 5.5418 32.2173 5.00114 32.4055L4.41994 32.5938C3.87929 32.8224 2.87908 33.0914 2.29787 33.2527C2.21677 33.2527 2.14919 33.2931 2.06809 33.3334C1.48689 33.4545 0.757005 33.7234 0.2569 33.2931L-0.0134277 32.8762C-0.0134277 32.688 0.0676705 32.2576 0.175801 32.1097C0.446129 31.7197 0.905685 31.3835 1.48689 31.1549L2.25732 30.886L2.87908 30.7381C3.85225 30.3481 4.41994 30.2002 5.04169 30.0119C5.66345 29.8236 6.35278 29.6623 7.01508 29.5143C7.16376 29.474 7.36651 29.3664 7.51519 29.3261L8.90738 29.0975L9.02902 29.0168H9.11012C9.96165 28.8285 11.0024 28.6671 11.8945 28.5192L12.4351 28.4385L13.1245 28.3175C13.2732 28.2772 13.4354 28.1696 13.584 28.1292L13.8949 28.0889L14.5842 28.0082L15.0033 27.9679C16.3549 27.7393 17.7471 27.5779 18.8689 27.43C19.369 27.3493 19.6799 27.3493 20.0989 27.2821L20.2882 27.2417L20.5179 26.9728L20.6666 26.7441L21.018 26.2869L21.7885 25.5608L22.8292 24.4043L23.7213 23.6781L23.87 23.5302L24.7215 22.804L25.0729 22.414L26.1137 21.3383L26.8436 20.5717L27.195 20.2221L27.8844 19.7649L28.3034 19.4959L28.8035 19.106L29.6955 18.4201L30.1551 17.9629L30.5741 17.6536L30.9661 17.1964L31.2364 16.9678L31.5878 16.7392L31.6284 16.6989L31.9393 16.5106C32.3312 16.2013 32.7502 15.7441 33.1422 15.4348L33.8045 14.8565L34.1154 14.5876C34.6155 14.1976 34.9264 13.9287 35.1967 13.6597L35.3184 13.5387C35.3184 13.5387 35.3995 13.3908 35.44 13.3504L35.7103 12.8932L35.9401 12.8125L36.2915 12.6646L36.4402 12.5167L36.7511 12.3688L37.7919 11.5216L37.9405 11.4005L38.2109 11.0912L38.3325 11.0509L38.9543 10.5937C39.2246 10.4054 39.4949 10.2037 39.6841 10.0154L39.8328 9.86752L40.2518 9.59857L40.6438 9.1817L41.1439 8.83206L41.8062 8.37485L41.9549 8.25381L42.3469 7.83695H42.3874L42.7388 7.48731L43.2795 7.13768L43.5904 7.05699L44.4419 6.39806C44.4419 6.39806 44.523 6.31737 44.523 6.27703L44.8339 6.00808L45.1853 5.77948L45.6043 5.51052L45.6449 5.47018L45.7935 5.3895L45.9422 5.20123L46.6045 4.89194C46.8343 4.74401 47.1857 4.54231 47.4155 4.35404L47.7669 4.08509L47.8886 4.00441C48.0778 3.85648 48.4292 3.65476 48.659 3.54718L48.8482 3.35892L49.078 3.17066L49.5376 2.90171L49.8485 2.78068L50.0782 2.63275L50.308 2.51173L50.5783 2.3907C50.9703 2.16209 51.538 1.89315 51.93 1.70488L52.1597 1.58385C52.8626 1.27456 52.7815 1.27455 52.8626 1.23421L53.633 0.884582L54.052 0.696318C54.1737 0.655975 54.3629 0.575289 54.4035 0.548394L54.7143 0.467702L55.1334 0.34668H56.9175L57.9988 0.696318L58.0529 0.534944ZM36.7511 14.2649L36.2104 14.7221L35.8185 15.0314L35.2373 15.5693L35.0075 15.7575L34.6561 16.0265L33.9532 16.6047L33.2639 17.183L32.5745 17.6805C32.0339 18.0705 31.1824 18.8774 30.7904 19.2539L30.4389 19.5632L30.1686 19.8321L29.2765 20.639C28.8575 20.9886 28.4656 21.2979 28.0736 21.903L26.2894 23.4361L25.0459 24.5925L24.2349 25.3994C24.0457 25.5877 23.8835 25.7087 23.7348 25.8163C23.2347 26.2735 23.2753 26.0045 22.8833 26.6231L23.7348 26.4752L24.5053 26.2466L25.5055 26.2063L26.4651 25.9373L26.8841 25.897L27.5464 25.7759L28.398 25.7356L28.5872 25.7759C29.1684 25.6952 29.7091 25.628 30.3308 25.507L30.4795 25.4263L30.9391 25.3053L31.5203 25.2649L32.4529 25.0363L32.8719 24.996L33.3315 25.0363L33.6018 24.996L33.9127 24.9556L34.0613 24.996L37.8459 24.5388L38.3866 24.4581L39.0083 24.2698L39.3598 24.1891L39.7517 24.1488H40.2113L40.4816 24.1084L40.7925 24.0681H42.1441L42.9957 23.9874L43.7255 23.8664L44.1175 23.9471C44.4284 23.9471 44.8068 23.9067 45.1583 23.8664L45.4286 23.7857H45.5773L45.726 23.8664L46.6586 23.7857L46.8073 23.7454H47.2263L47.6182 23.705H47.6993L47.848 23.4361L47.9967 23.2478L48.267 22.8309C48.3076 22.683 48.4563 22.3737 48.4968 22.2527L48.6185 22.1316V22.0106L48.7401 21.8627C48.8212 21.6341 48.8888 21.5937 48.9699 21.3651L49.3619 20.6793C49.3619 20.6793 49.4024 20.639 49.4024 20.5986L49.443 20.2087L49.6322 19.8187C49.6322 19.738 49.7133 19.6304 49.7133 19.5497L50.1728 18.9311L50.4026 18.5412L51.3353 16.6989L51.957 15.5424L52.0786 15.2331L52.6599 14.238V13.969L52.741 13.8883V13.7673L52.8896 13.458L53.1194 13.1084L53.579 12.4494C53.8493 11.8712 54.0791 11.293 54.3089 10.8761C54.3089 10.8357 54.39 10.7954 54.39 10.7551L54.9306 9.49099C55.0793 9.14136 55.282 8.68413 55.3902 8.10589L55.7821 7.17802C56.0119 6.86873 56.1336 6.41151 56.2011 5.98119C56.2011 5.86016 56.2822 5.75258 56.2822 5.63155C56.2822 5.59121 56.3228 5.48363 56.3228 5.44329C56.4715 4.71712 56.5931 4.09853 56.6337 3.39926C56.6337 3.35892 56.5931 3.25134 56.5931 3.211L56.6742 2.98239V2.6731L56.7553 2.40415C56.6337 2.36381 56.5661 2.3638 56.5255 2.01417C56.4039 1.93348 56.3363 1.89315 56.2147 1.89315L55.4037 1.97383L54.2413 2.32347L53.3897 2.47139L52.768 2.74034L52.3084 2.82102L52.1597 2.90171L51.119 3.47995L50.9298 3.60098L49.9971 4.17922C49.9971 4.17922 49.8485 4.36748 49.8485 4.40782L49.3889 4.59609L48.9969 4.71712L48.1859 5.21468C48.1048 5.25503 47.9562 5.40295 47.9562 5.40295L47.6858 5.59121L47.4561 5.71224L45.4016 7.09733L44.9015 7.48731L44.0094 8.17313L43.8201 8.32106L43.3606 8.63034L43.4011 8.59L43.0092 8.8993L41.8468 9.74649L41.5764 10.0961L41.3467 10.2441C41.2656 10.3247 41.225 10.3247 41.1574 10.3651V10.4861L40.7384 10.7551L40.5086 10.9433C40.5086 10.9433 40.1978 11.1316 40.0491 11.2526L39.8599 11.4005L38.6974 12.557L38.3055 12.826C38.2244 12.9067 38.0757 13.0142 38.0351 13.0949L37.7648 13.4042C37.6161 13.4446 36.9133 14.0228 36.7241 14.1707L36.7511 14.2649Z" fill="#939598"/>
<path d="M56.8227 29.2992C56.8227 29.2992 56.8633 29.2588 56.8633 29.2185L57.1336 28.7613L57.4039 28.3041L57.8229 27.6855L58.715 26.2197L58.9043 25.9104L59.0259 25.7625L59.5665 24.6867L60.2964 23.3016C60.3775 23.1133 60.5262 22.6023 60.6479 22.1451C60.729 21.7955 60.6884 21.5265 60.6884 21.3383C60.6884 21.029 60.6884 20.8407 60.7695 20.6121C60.8912 20.2625 61.3913 19.9263 61.8103 19.9263C62.8105 19.9263 63.2025 20.5449 62.9321 21.4996C62.7834 22.0375 62.5401 22.4679 62.3104 22.9251L61.5805 24.4984L61.1885 25.0767L60.9993 25.4935L60.8101 25.8835L60.2694 26.5693L60.1883 26.8383L59.9585 27.0669C59.7287 27.3762 59.4179 27.8737 59.2286 28.183L58.6069 29.0706C58.5258 29.2588 58.4177 29.6488 58.3366 29.7564L58.0257 30.2136L58.1068 30.1733L58.6069 29.7161L59.6071 28.7882L59.7287 28.6403L59.8098 28.4923L60.4316 28.0755L60.5803 27.9275L61.1615 27.5107L61.2831 27.43L62.2833 26.7711L62.432 26.7307L63.0538 26.3811C63.1754 26.3407 63.2836 26.2332 63.4052 26.1928C63.7161 26.0718 64.3784 25.8028 64.6487 25.8432H64.7974L65.6489 25.8835L66.1896 26.2735L66.541 26.7711L66.6626 27.43V27.7796L66.6221 28.1696L66.541 28.6268L66.5004 28.8958V29.2857L66.2707 30.2405C66.2707 30.3615 66.2301 30.4288 66.2301 30.5498L66.3112 30.8591L66.3518 31.0474C66.3923 31.1684 66.4734 31.397 66.5004 31.4373L66.541 31.6256L66.6897 31.8946C66.6897 31.8946 66.6897 31.9349 66.7302 31.9349L67.0817 32.0828C67.5412 32.1232 68.0548 32.0828 68.7036 31.9618L69.4065 31.6525L69.6768 31.6122C69.8255 31.5718 70.0688 31.4642 70.1769 31.4239L70.4878 31.3836L71.069 31.1549L72.2314 30.6977H72.353L73.0153 30.4691L74.3264 29.8505L74.8265 29.5009L75.0158 29.4606L75.8673 29.0437L76.1376 28.8554L76.4485 28.5865L76.7999 28.3982L77.8812 27.9006L79.1923 27.1341L79.4221 26.9862L79.9222 26.6769L80.1114 26.5962L80.6115 26.2466H81.0305L81.2603 26.4349L81.382 26.6231L81.3009 27.04L80.9089 27.309L80.206 27.7662C79.7465 28.1158 79.3545 28.3444 78.9761 28.5327L78.3948 28.9496L78.0029 29.0975L77.4217 29.4875L76.9621 29.7161C76.6512 29.9043 76.2322 30.106 75.6916 30.375L75.0698 30.7246L73.3668 31.5718H73.2857C73.137 31.6928 72.8937 31.8004 72.7856 31.9215L72.2449 32.2307L71.7042 32.3787C71.5556 32.419 71.3528 32.5669 71.2041 32.6476L70.8527 32.7955L70.4337 32.8762L69.9742 32.9569L69.7038 32.9973L69.5551 33.0779L69.4065 33.1183L69.2848 33.1586C69.2037 33.199 69.055 33.2393 68.8253 33.2393L68.4738 33.32L68.0819 33.441L67.6629 33.4814L67.2033 33.441L66.9735 33.5217L66.5815 33.4814C66.1625 33.4814 65.7706 33.3334 65.4191 33.1721H65.3786L65.2299 33.0914C64.8379 32.9031 64.5271 32.4728 64.4189 32.0156C64.3784 31.8273 64.3784 31.5987 64.3784 31.3298V30.8725L64.5271 30.4153L64.7568 29.6085L65.1488 28.2637C65.1488 28.183 65.1894 28.0351 65.1894 27.9544C65.2299 27.5645 65.1488 27.2686 64.919 27.1879C64.7974 27.1879 64.6082 27.2283 64.5 27.2686C64.5 27.2686 64.4595 27.3493 64.3513 27.3896L64.081 27.5376L63.689 27.7258L63.3376 27.8738L62.797 28.2637L62.6077 28.3444L62.2158 28.7344L61.8238 29.084L61.3642 29.3933C61.2155 29.5412 60.9047 29.8909 60.7425 30.0119L60.391 30.2405L60.0802 30.4288L59.9585 30.5498L59.4179 31.0474L59.3368 31.0877L59.0259 31.276L58.8367 31.4239L58.715 31.5449L58.2149 32.1232L57.7554 32.4728L57.066 33.199L55.9036 34.3958L55.6738 34.6244L54.944 35.122L54.5925 35.1623C54.133 35.0413 53.9708 34.7051 53.8626 34.3555C53.8221 34.0462 53.8626 33.5486 54.3627 32.93L54.6331 32.5131L55.4441 31.4373L55.6738 31.0205L56.0253 30.5633L56.1064 30.4153L56.6876 29.5278L56.8362 29.3799L56.8227 29.2992Z" fill="#939598"/>
<path d="M96.0474 35.1489L95.5473 35.4985L94.885 35.8482L94.3038 36.1171L93.7226 36.4264L93.4523 36.4668L92.6007 36.8567L92.1817 36.8971C92.1817 36.8971 92.1006 36.9374 91.9925 36.9374L91.7222 36.9778L91.3707 36.9374L90.9788 36.8971L90.6679 36.6685L90.3165 36.3188L90.0461 35.902L89.6947 35.2161L89.6136 34.9069V33.7504C89.5731 33.4007 89.6136 33.2125 89.6542 32.9032C89.6542 32.8225 89.6947 32.7149 89.6947 32.5535V32.3653L89.8434 31.1416L90.0732 30.4826C90.0732 30.4826 90.1137 30.3347 90.1137 30.254L90.3435 29.3665C90.3435 29.2858 90.3841 29.2455 90.3841 29.2186L90.5327 28.99L90.9247 28.0621L90.9653 27.9141L91.0463 27.6452L91.3167 26.9594C91.3167 26.9594 91.3978 26.8383 91.3978 26.8115L91.5194 26.4618C91.5194 26.3811 91.56 26.3139 91.56 26.2735L91.6816 25.9643L91.56 25.5743L91.5194 25.4532L91.3707 25.0633L91.2896 24.9826L90.8301 25.4802L90.1678 26.2467L89.3163 26.9325L88.6945 27.43L86.9509 29.1648L86.8698 29.2051L86.5995 29.5144L86.3697 29.7027L85.9507 30.0926L85.6804 30.3213L85.2613 30.7785L84.9505 31.1953L84.4098 31.545C84.2882 31.6929 84.0584 31.8543 83.9908 31.9619L83.4502 32.3518L83.0311 32.5804C82.95 32.6208 82.8014 32.7687 82.8014 32.7687L82.3824 33.0376L82.1526 33.1856L81.1118 33.8445L80.8415 34.0328L80.5306 34.1807C79.4493 34.8396 78.2058 35.3372 77.1245 35.3372C76.8947 35.3372 76.4352 35.1086 76.1919 35.0279C76.0702 34.9875 75.9621 34.9069 75.8404 34.7993C75.7593 34.7186 75.6512 34.6782 75.3809 33.9117L75.3403 33.2259L75.4214 32.6073L75.5701 32.2173C75.6107 32.0963 75.7188 31.9081 75.7593 31.7601L76.0702 31.1819L76.4622 30.4826L76.5838 30.2944L76.7325 30.0254L77.1245 29.4472L77.3948 29.0975L77.7868 28.6403V28.6L78.0977 28.331L79.6791 26.8652L80.1792 26.4753L81.1388 25.5474L81.3281 25.4264L81.7876 25.0364L81.9363 24.9557L82.4364 24.6061L82.6662 24.3775L83.0582 24.1488L83.288 24.0009L83.5988 23.8127L84.2206 23.3958L84.8829 23.0461L85.1532 22.8982L85.4641 22.8175L86.0453 22.5889L86.5048 22.32L86.9644 22.0914L87.0861 22.051L87.5051 21.9031C87.6267 21.8628 87.6943 21.8628 87.8565 21.8628C87.897 21.8628 87.9376 21.8628 88.1268 21.7417C88.5458 21.5938 89.3298 21.7014 89.911 21.7821C89.9921 21.7821 90.1002 21.8224 90.1813 21.8224L90.5327 21.9703L90.8436 22.1183C90.9652 22.199 91.195 22.3469 91.2626 22.5083L91.3032 22.5889L91.4518 22.441L92.3845 21.5535L92.8035 21.1366L93.7361 20.2491L94.047 19.8322L94.858 18.985L95.3175 18.4874L96.3177 17.4116L97.3585 16.2148L98.0478 15.408C98.1965 15.2197 98.3587 14.9507 98.5074 14.8297L98.8183 14.4128L99.0075 14.2649L99.1291 13.9556L100.332 12.5302L101.143 11.562L101.373 11.3334L102.103 10.3651L102.224 10.1769L103.035 9.10108L103.265 8.79178L103.927 7.90425L104.157 7.63529L104.279 7.44703L104.968 6.5595L105.198 6.20986L105.901 5.40301L106.86 4.13894L107.252 3.64138L107.401 3.33209L107.712 2.91521L108.172 2.458L108.874 1.73184C109.375 1.46289 109.685 1.46289 110.037 1.46289C110.388 1.46289 110.659 1.54357 110.888 2.08148C111.01 2.49835 110.767 2.88832 110.537 3.30519L109.956 3.99102L109.415 4.6096L108.253 5.64507C108.212 5.72575 108.063 5.87367 108.023 5.91401L107.442 6.41158L107.171 6.72086L106.752 7.25877L105.941 8.10596L105.522 8.6842L105.441 8.72455L105.252 8.95316L104.982 9.18176L104.009 10.4862C103.86 10.7551 103.468 11.2527 103.346 11.4409L102.927 11.9385L102.508 12.7454L102.319 12.9336L102.17 13.2026L101.359 14.5877L101.17 14.7759L100.17 16.1207L99.859 16.5107L99.5887 16.9275L98.5074 18.3933L98.3587 18.5412L97.5883 19.5767C96.6556 20.8408 95.9258 21.9972 95.5068 22.6562C95.4662 22.6965 95.3175 22.8041 95.1959 23.073L94.9256 23.5303C94.3849 24.3774 93.9659 24.996 93.4523 25.9508C93.4523 25.9912 93.4117 26.0718 93.4117 26.0987V26.3273L93.3306 26.7173V26.9863L93.209 27.2552L93.0197 27.7931L92.79 28.2503L92.2899 28.4386H92.2088L91.9384 29.2454L91.7898 29.7027C91.7492 29.7834 91.7086 30.0523 91.7086 30.1195L91.4789 30.6978L91.3572 31.4239L91.2085 32.1501L91.0599 33.1856C90.9788 34.1807 91.2085 34.6514 91.56 34.8396L91.8708 34.9606C91.9925 35.001 92.0601 35.0413 92.1412 35.0413L92.4521 34.9203L93.0738 34.732C93.2225 34.6514 93.4252 34.5841 93.4928 34.5034L93.8037 34.4631H94.3443C94.9661 34.1538 95.8582 33.6562 96.5881 33.199L97.1693 32.809L97.399 32.688L97.5883 32.4997L98.0073 32.2308L98.2776 32.0829L98.629 31.8946C98.9399 31.6257 99.3995 31.3164 99.6698 31.0474L100.17 30.8188L100.67 30.4288L100.981 30.1599L101.562 29.7699L101.684 29.7296L101.832 29.6085L102.184 29.2992L102.495 29.111L103.427 28.4251L103.819 28.1965L104.86 27.309L105.401 26.9594L105.712 26.6904C106.022 26.3811 106.401 26.3004 106.644 26.5022C106.833 26.6904 107.144 27.1207 106.604 27.43L106.455 27.5511C106.185 27.7797 105.793 28.0083 105.563 28.2503L103.779 29.6758L103.549 29.9447L103.427 29.9851L103.238 30.133L103.116 30.1733C102.454 30.6709 101.805 31.1684 101.184 31.5988L100.521 32.0156L100.292 32.1636L100.021 32.4729L99.832 32.5132C99.1427 33.0108 98.3182 33.468 97.6288 33.979L97.4396 34.1672L96.8178 34.5841H96.7367L96.5475 34.732L96.0879 35.0817L96.0474 35.1489ZM79.625 29.0706L79.233 29.4203L78.8816 29.8102L78.4896 30.4288C78.4896 30.4288 78.341 30.6574 78.341 30.7381L77.9895 31.5046C77.949 31.8139 77.8003 32.1636 77.7192 32.4997C77.6787 32.5804 77.6381 32.809 77.6381 32.8897L77.5976 33.4276L77.7192 33.8445H77.949L78.1382 33.7638L78.3274 33.6831L78.7194 33.4545L79.179 33.1452L79.3682 33.0242L79.8683 32.7553L80.3279 32.5266L80.4495 32.4056C81.0307 32.0156 81.5308 31.6795 82.0309 31.2895L82.5716 30.9398L82.8419 30.7516L83.0717 30.5633L83.2609 30.254L83.8827 29.7161L84.153 29.4875L84.6126 29.0706L85.0316 28.721L85.9642 27.9141C86.6941 27.3359 87.3564 26.7577 87.9781 26.1391L88.8297 25.2919L89.4514 24.633L89.9515 24.1757L90.2624 23.7858L90.3841 23.5975L90.2624 23.3285L89.9921 23.0193L89.7623 22.9386C89.5325 22.8579 89.2216 22.8579 88.9513 22.8982C88.289 22.9789 87.6402 23.2075 87.059 23.4765L86.3697 23.8664L85.9101 24.0547L85.4506 24.2026L84.9099 24.4716C84.2476 24.8212 83.5583 25.1574 82.1255 26.3542C82.0039 26.4349 81.7741 26.6635 81.666 26.8115C81.5443 26.9594 81.4362 27.2014 81.3146 27.309L80.2738 28.3445L79.9629 28.6941L79.7737 28.842L79.625 29.0303V29.0706ZM92.2223 24.0278L92.5331 24.6061L92.6142 24.5254C92.6548 24.4447 92.8035 24.1757 92.8846 24.0682C92.9251 23.9875 92.9251 23.9471 92.9251 23.9202L93.1144 23.6916L93.5739 22.9655L93.7226 22.6965L94.2632 21.809V21.7686C94.1146 21.9972 93.8442 22.2662 93.682 22.4948L93.3712 22.7234L92.2088 24.0278H92.2223Z" fill="#939598"/>
<path d="M106.104 28.9899L106.252 28.8688L106.914 28.3309L107.266 27.9813L107.685 27.672L108.347 27.2551L109.077 26.6769L109.929 26.0583L111.132 25.2111L111.28 25.0901L111.699 24.8615L111.97 24.5925L112.159 24.5522C112.28 24.4715 112.429 24.4043 112.51 24.3236L113.281 23.8664L113.632 23.5167L113.862 23.3688L114.403 23.1805L114.822 22.7906L115.322 22.4813L116.362 22.0644H116.403C116.403 22.0644 116.754 21.9165 116.863 21.8358C117.011 21.7551 117.282 21.6475 117.944 21.2575L118.674 20.9886L119.836 20.491L120.255 20.3431L120.566 20.2221L121.026 20.1817C121.715 19.9935 122.377 19.8724 122.958 19.9128C123.08 19.9531 123.188 19.9935 123.31 19.9935C123.621 20.1414 123.851 20.2624 123.999 20.4103C124.08 20.491 124.27 20.6793 124.31 20.8003L124.459 21.2172L124.378 22.172L124.229 22.6292L124.04 22.9385L123.729 23.2478L123.418 23.436L123.107 23.5167L122.877 23.5571L122.566 23.5167L122.174 23.1267L122.134 22.8981L122.093 22.7099V22.5216L122.012 22.2527L121.972 21.9837L121.891 21.7148H121.58L121.039 21.9434L120.769 21.9837L120.58 21.9434L120.161 22.1316L119.809 22.172C119.35 22.2527 118.836 22.4006 118.417 22.4813C117.917 22.7099 117.336 22.9788 116.836 23.1671C116.795 23.2074 116.646 23.2881 116.606 23.2881L116.416 23.4764L114.876 24.2832L114.335 24.6329L114.065 24.8615L113.335 25.2514L113.186 25.3321L112.835 25.6414L112.253 26.0314L112.024 26.26L110.902 26.9862L109.902 27.8737L108.969 28.7612L108.699 28.9495L108.239 29.4471L107.658 29.9446L107.347 30.1329C107.266 30.2136 107.117 30.3212 107.077 30.4018L106.725 30.7111L106.374 31.1011L106.185 31.2894L105.995 31.4373L105.603 31.7869L105.482 31.9752L105.252 32.1635L105.103 32.3517L104.711 32.7014L103.819 33.8175L103.238 34.6647L102.887 35.0816L102.387 35.4985C102.238 35.5791 101.995 35.6195 101.805 35.6195C101.454 35.6195 101.184 35.4716 101.116 35.2295C100.994 35.0816 100.886 34.3823 101.116 33.8848L101.427 33.1989L101.886 32.4324L102.238 32.0156L102.508 31.6659L102.968 31.0473L103.238 30.6573L103.468 30.3077L103.617 29.9581L104.008 29.4605L104.09 29.1916L104.549 28.6537L104.671 28.5326C104.819 28.3444 104.982 27.9947 105.13 27.8065L105.36 27.4568L105.779 26.8383L106.131 26.2197L106.252 26.0314L106.401 25.6818L106.55 25.4935V25.4532L106.86 24.727L107.131 24.1891L107.55 23.4629L107.942 22.5082L107.982 22.3602L108.131 22.1316L108.631 21.6341L109.253 21.2172L109.483 21.1365L109.753 21.1768C110.294 21.4055 110.483 21.6744 110.564 21.9434V22.172C110.564 22.7502 110.212 23.2478 109.875 23.6781L109.064 24.5656L108.712 24.9556L108.631 25.0766L108.482 25.3456C108.482 25.3456 108.253 25.6952 108.063 25.9642L107.523 26.7307L107.374 27.04L107.063 27.5375L106.752 27.8872V27.9275L106.441 28.4251L106.049 29.0033L106.104 28.9899Z" fill="#939598"/>
<path d="M123.607 30.2942C123.607 30.2942 123.567 30.2942 123.567 30.3345L123.175 31.101C123.175 31.37 123.134 31.9079 123.134 32.1365C123.093 32.2575 123.093 32.5265 123.215 32.7551C123.296 32.8761 123.485 32.903 124.067 33.024L124.607 33.172H125.107L125.689 33.0913L128.392 32.4727L129.054 32.2037L130.446 31.7465L130.798 31.5583L131.028 31.5179L133.312 30.5497L133.731 30.3614L134.15 30.2807L135.461 29.8235L135.583 29.7832C136.272 29.4739 136.853 29.1646 137.394 28.936L138.935 28.2098L139.475 27.9409L139.624 27.9005L140.016 27.7123L140.597 27.524L141.76 26.9861L141.989 26.7978L143.774 25.722L144.544 25.3052C144.814 25.1169 144.855 25.1169 145.004 25.0362C145.152 24.9152 145.274 24.8883 145.544 24.8479C145.774 24.8479 146.085 24.8479 146.206 25.1169C146.328 25.3455 146.058 25.7758 145.787 25.9237L145.477 26.0717L145.247 26.2196L144.436 26.7172L143.936 27.0668L143.855 27.1071L143.044 27.5643L142.733 27.7526L142.462 27.9005L142.273 28.0485L142.043 28.1291H141.962L140.962 28.6267C140.881 28.667 140.732 28.7746 140.732 28.7746L140.34 28.9629C140.259 29.0032 139.989 29.1108 139.84 29.2318L138.367 29.8908L137.907 30.1194C137.597 30.2673 137.286 30.469 136.975 30.5766L136.853 30.6976L135.069 31.5448L134.096 31.9348L133.744 32.0155L133.393 32.1634C132.933 32.3517 132.393 32.5534 131.879 32.7416C131.69 32.8223 131.487 32.9702 131.298 33.0509L130.054 33.6695L129.284 33.8174L128.662 34.0057L128 34.2343L127.338 34.3553L127.108 34.436C126.959 34.5167 126.689 34.557 126.337 34.6243L125.675 34.8125L125.445 34.8529L124.715 35.0008L123.986 35.0815L123.026 34.9336L122.053 34.4764L121.512 33.7099L121.323 33.2123L121.201 32.6744L121.161 32.0962L121.201 31.7869V31.4372L121.472 30.469L121.742 29.9714C121.823 29.7428 121.931 29.6218 122.012 29.3932L122.431 28.7074L122.931 28.1291L123.621 27.3223L124.161 26.9323L124.621 26.5154L124.972 26.2061L125.513 25.7086L125.594 25.6279C125.635 25.5472 125.743 25.48 125.783 25.3993L126.094 25.1303L126.405 24.9421L126.986 24.6328L127.067 24.5924L127.216 24.4714C128.027 23.8932 128.878 23.2342 129.811 22.6963L130.271 22.3467L131.271 21.8491L131.622 21.6609L131.812 21.6205L132.312 21.5399C132.933 21.3516 133.204 21.1902 133.474 21.123L134.326 20.9347H134.718C134.839 20.9347 134.947 20.8944 135.069 20.8944H135.65C135.799 20.8944 136.042 20.9347 136.191 20.9347C136.421 21.0154 136.542 21.0826 136.61 21.123L137.029 21.3516C137.259 21.5399 137.448 21.7012 137.529 22.0105L137.61 22.4274L137.651 22.5753L137.61 22.9922L137.488 23.3822L137.34 23.8797L136.84 24.458L136.38 24.8076L135.988 25.1572L135.529 25.4665L134.326 26.1927L134.096 26.381L133.866 26.4213C132.933 27.0399 132.082 27.5374 131.203 27.9947L131.014 28.1157L129.892 28.6536L129.392 29.0032L128.351 29.4604L127.662 29.7294L126.5 29.9177L125.837 29.958H125.486L124.986 29.7294L124.945 29.3394L124.986 29.0301C125.608 28.304 125.945 28.1426 126.567 27.914C126.608 27.914 126.689 27.8333 126.716 27.8333C127.108 27.793 127.608 27.6854 127.986 27.645L128.405 27.524L128.797 27.403L129.189 27.2551L130.041 26.9861L130.892 26.5289L131.703 26.1792C132.095 25.991 132.636 25.6413 133.015 25.4531L133.285 25.3052L133.677 24.9959L135.258 23.7721C135.258 23.7721 135.447 23.5839 135.488 23.5032C135.515 23.4494 135.529 23.4001 135.529 23.3553L135.61 23.167L135.799 22.6291C135.799 22.6291 135.718 22.5888 135.718 22.5484L135.407 22.3602C135.326 22.3198 135.285 22.2795 135.258 22.2795H134.839L134.569 22.3198L134.339 22.3602C133.488 22.5484 132.595 22.9384 132.014 23.2477L131.744 23.3687L131.284 23.5973L131.203 23.678L130.352 24.068L130.203 24.1487L129.514 24.5656L129.014 24.9824L128.392 25.3321L128.27 25.3724L127.649 25.8296C127.567 25.9103 127.5 25.9103 127.419 25.9775C127.378 26.0582 127.27 26.1658 127.229 26.2061L126.648 26.744L126.378 27.013L125.959 27.403L125.459 27.9409L125.067 28.3577L124.797 28.6267C124.715 28.7074 124.648 28.8956 124.567 28.9763L124.296 29.3663L123.877 29.7832L123.567 30.2807L123.607 30.2942ZM134.163 17.0215L133.042 17.3308C132.65 17.4518 132.541 17.3711 132.041 17.7208L131.379 17.909L130.717 18.0973L129.906 18.4066L129.365 18.7562L129.216 18.8369L128.527 19.1462C128.446 19.1865 128.405 19.1865 128.216 19.2269C127.946 19.1865 127.824 18.9176 127.797 18.689C127.797 18.5411 127.878 18.3797 128.027 18.299L129.068 17.6804L129.338 17.5594C129.46 17.5594 129.608 17.4787 129.757 17.3308C129.879 17.2904 130.027 17.2501 130.149 17.2098L130.5 17.0618L131.46 16.645C131.96 16.4567 132.42 16.2953 132.893 16.1474L133.582 15.8785L133.893 15.8381L134.663 15.6095L135.934 15.2599L136.204 15.1388L136.515 15.0582L136.934 14.9775L137.205 14.9371C137.434 14.8161 137.664 14.7489 137.894 14.7085L138.786 14.3589L139.516 14.211L139.975 13.942L140.516 13.7537L141.408 13.4041L141.908 13.3638L142.26 13.4041L142.652 13.4848L142.881 13.6731L143.003 13.8613V14.1303L142.963 14.4799L142.773 14.7892L142.422 15.0582L142.3 15.0985L141.76 15.3674L140.989 15.5961C140.868 15.6767 140.57 15.8247 140.408 15.865L139.719 16.0533L138.827 16.1743L138.326 16.3222L137.975 16.3626L137.353 16.4029L136.894 16.5508L135.583 16.6987L135.312 16.7794L134.15 17.008L134.163 17.0215Z" fill="#939598"/>
<path d="M158.939 23.3419C158.898 23.4226 158.898 23.4899 158.898 23.5302C158.898 23.7991 158.899 24.0278 158.547 24.4177C158.358 24.6867 157.885 25.1036 157.385 24.8749L156.966 24.6867L156.466 24.1891L156.384 23.9202L156.303 23.7319V23.4226L156.384 23.194L156.344 22.8444L156.263 22.6561L156.141 22.5754L155.952 22.4275L155.722 22.3468C155.573 22.3468 155.452 22.3065 155.303 22.3065H154.411C154.222 22.2661 154.06 22.3065 153.249 22.4947L152.667 22.683L150.694 23.2613L150.113 23.4899L149.572 23.7992L149.261 23.9202L148.802 24.0412L148.072 24.3505L147.883 24.4312L146.991 24.8884L146.45 25.2784L146.301 25.4263L145.761 25.6952L145.531 25.8835L145.382 26.0045L145.152 26.1525L145.031 26.2735L144.72 26.6904L144.368 26.919L144.22 27.0669L143.801 27.3358C143.679 27.4838 143.571 27.6855 143.571 27.7931L143.652 27.941L143.774 28.0889L144.314 28.6268L144.504 28.7478L144.896 28.9764C145.044 29.0168 145.247 29.1244 145.396 29.1647L145.788 29.353L146.058 29.5009C146.139 29.5412 146.328 29.5816 146.409 29.5816L146.761 29.8102L147.612 30.1598C147.734 30.1598 147.923 30.2405 148.031 30.2405L148.45 30.3212L148.802 30.4691H148.883L149.032 30.5901L149.761 30.8187C149.883 30.8187 149.991 30.8591 150.113 30.8591L150.302 30.9801C150.572 31.0205 150.883 31.128 151.194 31.1684C151.343 31.1684 151.613 31.2491 151.775 31.2491L152.627 31.4373L153.478 31.8542L153.87 32.4325L153.911 32.93L153.87 33.199L153.6 33.5083L153.249 33.8175L152.627 34.0865H152.438L152.208 34.2344L151.667 34.3823L151.586 34.342L151.194 34.463L150.194 34.5437L148.45 34.6647H147.95L146.409 34.7454H145.95L145.45 34.7858L144.869 34.7454L144.409 34.8665H143.747L142.746 34.7858H142.125L141.733 34.8261H141.773L141.084 34.9471H140.895L140.354 35.0682H140.043C139.813 35.1085 139.584 35.2161 139.354 35.2564L138.854 35.3775L138.394 35.4178L137.975 35.4581L137.016 35.6868L136.826 35.7271L136.286 35.8078H136.137L135.988 35.8885L135.718 35.9288L135.367 35.5388L135.285 35.2699L135.434 35.0009L135.786 34.8799L136.177 34.732L137.137 34.5034L137.637 34.4227L138.178 34.3017L138.637 34.221L139.719 33.8041H140.219L140.53 33.7234L141.111 33.7638L141.53 33.7234L141.841 33.6427L142.652 33.562L143.314 33.4814L143.895 33.441L144.706 33.3603H145.247L145.558 33.2796L145.679 33.32H145.95C146.071 33.32 146.071 33.2796 146.18 33.2796C146.22 33.2393 146.45 33.1586 146.531 33.1317L147.531 33.051L148.112 32.9031H149.464L149.694 32.8224H150.086L149.775 32.7014L149.356 32.5131L149.005 32.3921C148.883 32.3921 148.734 32.3114 148.653 32.3114L148.464 32.2711L147.464 31.7735C147.383 31.7735 147.342 31.6928 147.315 31.6928L146.964 31.5449L146.382 31.276L145.99 31.128C145.869 31.0877 145.909 31.007 145.761 30.9801C145.531 30.8994 145.45 30.8322 144.828 30.6708C144.558 30.5902 144.409 30.5229 144.166 30.3212L144.085 30.2809C144.003 30.2809 143.895 30.2405 143.855 30.2405L143.503 30.1195C143.422 30.1195 143.314 30.0791 143.274 30.0791L143.003 29.8505L142.855 29.7295L142.895 29.7698L142.503 29.5009L142.003 29.0033L141.881 28.5461V28.3175L141.922 28.0082C141.962 27.82 142.071 27.6182 142.273 27.3224L142.354 27.2014C142.354 27.2014 142.436 27.0535 142.436 27.0131L142.895 26.4349L143.355 25.9373L143.666 25.5877L143.814 25.4666C143.814 25.4666 143.963 25.238 143.963 25.1977L144.314 25.0094L144.436 24.8884L144.896 24.5388L145.436 24.2295L146.058 23.8798L146.247 23.7588L146.828 23.4495L146.869 23.4092L147.139 23.2881L147.288 23.1671L147.95 22.8175L148.18 22.7771L149.032 22.4678L149.383 22.3199L149.694 22.2392L150.735 21.93L151.397 21.7417L152.248 21.4324L152.519 21.3517L152.708 21.3114C152.708 21.3114 152.749 21.3114 152.857 21.271L153.249 21.1903C153.478 21.1096 153.708 21.0693 153.938 21.0424L154.979 20.9214H156.452L157.222 21.0693L157.452 21.1097L157.952 21.2576L158.452 21.6072L158.723 21.9165L158.804 22.0644L158.926 22.4813L159.007 22.8713V23.2613L158.939 23.3419Z" fill="#939598"/>
<path d="M176.713 8.2268L176.024 8.61678C175.835 8.7647 175.524 8.92607 175.361 9.03365L174.942 9.38329L174.402 9.92119L173.712 10.9163L172.983 11.8038L172.253 12.3821C171.834 12.6914 171.171 12.6914 170.86 12.53L170.509 12.1804C170.36 11.5618 170.469 10.8356 170.631 10.3784C170.671 10.1901 170.752 9.92119 171.334 9.38329C172.564 8.34783 173.118 7.99819 175.051 6.84171L175.983 6.38449L176.254 6.26346H176.335C176.646 6.0752 177.146 5.91383 177.538 5.72556C177.767 5.60453 178.159 5.49695 178.43 5.37592L179.241 5.10698L179.741 4.95905C180.322 4.77079 180.592 4.64976 180.863 4.54218L181.322 4.39426C181.471 4.35392 181.592 4.27323 181.782 4.24634L182.133 4.09841L182.363 3.97738L183.133 3.74877L183.715 3.62775L184.066 3.54706L184.377 3.46638L184.918 3.3857L185.309 3.34536C185.539 3.26467 185.85 3.22432 186.702 3.03606L186.972 2.95538L187.202 2.87468L187.553 2.794L187.972 2.75366L188.161 2.71332L188.702 2.5654L189.121 2.44436L189.473 2.32334L190.365 2.17542L190.757 2.05438L191.149 2.01404H191.919L192.338 1.9737L192.689 1.89302L193.379 1.77199L194.19 1.58372H194.379C194.379 1.58372 194.379 1.54338 194.46 1.54338C194.582 1.50304 194.771 1.50304 195.149 1.50304C195.339 1.50304 195.568 1.4627 195.96 1.4627H196.109C196.109 1.4627 196.19 1.42236 196.258 1.42236C196.298 1.42236 196.339 1.4627 196.406 1.4627H196.596L196.717 1.50304L197.069 1.54338C197.528 1.50304 198.191 1.50304 198.61 1.50304L199.231 1.42236H199.542L199.934 1.38201H200.164L200.556 1.30133C200.556 1.30133 200.745 1.26099 200.786 1.26099L201.137 1.38201C201.259 1.42235 201.367 1.4627 201.489 1.4627C201.678 1.4627 201.84 1.42236 201.989 1.42236C202.61 1.38202 203.34 1.38201 204.003 1.38201L205.003 1.42236L205.462 1.38201L205.922 1.50304L206.503 1.38201H206.922L207.382 1.50304C207.503 1.50304 207.571 1.54338 207.693 1.54338L207.963 1.58372L208.314 1.50304L208.774 1.65097C208.896 1.73165 209.085 1.77199 209.355 1.79889L209.544 1.87957C209.774 1.83923 210.085 1.91992 210.436 2.0006L211.247 2.14852C211.437 2.18886 211.639 2.18887 211.829 2.18887C212.45 2.22921 213.18 2.30989 213.64 2.41747C213.87 2.41747 214.14 2.49816 214.37 2.49816C214.721 2.5385 215.073 2.57884 215.343 2.64608C215.424 2.64608 215.532 2.60574 215.613 2.60574H216.032L216.424 2.68642H216.694C216.965 2.83434 217.113 2.83434 217.316 2.87468C217.357 2.91503 217.438 2.95538 217.505 2.95538L217.735 2.91502L218.195 3.03606C218.425 3.15709 218.654 3.18398 218.965 3.18398L220.236 3.41259C220.925 3.53361 221.669 3.60085 222.398 3.80257L223.358 3.92359L223.547 4.07151H223.858L224.25 4.19254L225.102 4.34047L225.372 4.56907C225.453 4.56907 225.602 4.60941 225.683 4.64976C225.805 4.6901 225.913 4.73045 225.832 4.73045L226.561 5.03973L227.372 5.45661L227.562 5.49696L227.873 5.68522L228.562 6.14243L228.954 6.45173L229.373 6.90894C229.454 6.94928 229.454 7.02997 229.522 7.05686L229.981 7.44684L230.4 7.86371L230.549 8.09233L230.779 8.48231L231.198 9.10089L231.346 9.49087L231.387 9.80016L231.427 10.0288L231.346 10.5263L231.265 10.8356L230.806 11.7232C230.265 13.0276 229.413 14.0361 228.454 14.843L228.035 15.233L227.886 15.354L226.805 16.3222L226.386 16.4701L225.994 16.6584H225.872L225.413 16.9677L225.142 17.1559L224.291 17.5459L223.52 17.9628C222.939 18.1914 222.128 18.5814 221.587 18.81C221.047 19.0386 220.384 19.3076 219.925 19.4689C219.884 19.5093 219.965 19.5093 219.884 19.5496L218.911 19.9665L218.763 20.0068C218.411 20.1547 218.492 20.0875 218.343 20.1278C218.303 20.1278 218.262 20.1682 218.154 20.1682L217.762 20.3565C217.573 20.4775 217.37 20.5447 217.222 20.5851L216.64 20.7061L215.911 20.975C215.762 21.0154 215.492 21.0961 215.181 21.123L214.681 21.244L214.329 21.365L213.829 21.4054L213.707 21.4457C213.207 21.5936 212.815 21.634 212.477 21.634C212.329 21.755 212.167 21.8222 211.977 22.3198L211.896 22.4408L211.815 22.898V23.5166L211.775 23.6377V23.7587L211.923 24.6059L212.112 25.2245V25.1841C212.194 25.4934 212.302 25.7624 212.342 25.843C212.464 26.0716 212.613 26.2599 212.761 26.4213C213.032 26.6902 213.113 27.0399 213.18 27.3492C213.261 27.6585 213.329 27.9274 213.532 28.1157L213.572 28.2636L213.843 28.7208L213.991 28.9091C214.383 29.5277 214.654 29.8639 214.924 30.1731C215.235 30.59 215.613 31.0607 215.965 31.4776C216.046 31.6255 216.113 31.7062 216.113 31.7868L216.235 31.9751C216.546 32.2844 216.735 32.4727 216.965 32.782C217.005 32.8223 217.114 32.9702 217.154 32.9702L217.546 33.3871L217.776 33.6964L217.965 33.9653C218.195 34.1939 218.546 34.6915 218.817 35.0815L219.168 35.3908L219.438 35.7001L219.668 35.9287L219.817 36.3187C219.817 36.3187 219.898 36.3993 219.965 36.4397C220.114 36.5607 220.276 36.6683 220.695 37.2869C220.885 37.5558 221.047 37.7844 221.236 37.9727L221.425 38.1206L222.047 38.9275L222.507 39.5864L223.318 40.2453L224.129 40.9715L225.399 42.2759L225.669 42.5045L225.791 42.6928C226.21 43.0021 226.643 43.4189 227.062 43.8089L227.683 44.4275C227.954 44.6561 228.346 45.0864 228.616 45.315L228.738 45.5033C228.886 45.7319 229.13 45.853 229.359 46.0009L229.819 46.3505L231.333 47.8163L232.184 48.5828C232.644 48.9997 232.765 49.1207 233.225 49.4703C233.806 49.8872 234.617 50.3579 235.077 50.5058C235.388 50.5865 235.739 50.7344 236.009 50.8151L236.78 50.9361C237.239 50.9765 237.51 51.1647 238.091 51.7026C238.091 51.7833 238.131 52.0119 238.131 52.0523L238.05 52.2405C237.658 52.8188 237.429 52.8994 237.118 52.8994C237.037 52.8994 236.969 52.9398 236.888 52.9398H236.699C236.577 52.9398 236.118 52.9398 235.766 52.8994C235.644 52.8994 235.415 52.8994 235.347 52.8591C235.307 52.8591 235.225 52.8188 235.198 52.8188L234.806 52.5901L234.617 52.5095L233.495 51.9312L233.103 51.5816L232.955 51.3933L232.684 51.1647C232.495 51.084 232.292 50.8554 232.225 50.6672L230.103 48.4752L229.711 48.2466L228.481 47.1708C228.21 47.0901 228.089 46.9019 228.062 46.7136L227.981 46.6329L227.67 46.4043L227.399 46.1757C227.17 46.0278 226.94 45.8664 226.71 45.5168L226.251 45.0595L225.791 44.6023L224.858 43.7955L224.548 43.4458C224.548 43.4458 224.358 43.2979 224.358 43.2576L223.858 42.76L223.709 42.5718L223.399 42.3431L223.209 41.9935L223.128 41.9532C223.128 41.9532 222.939 41.6842 222.358 41.1867C222.236 41.106 222.006 40.7967 221.858 40.6084C221.736 40.4874 221.466 40.2184 221.506 40.2184L221.236 39.8688C221.047 39.5998 220.844 39.4116 220.655 39.2502C220.466 39.1023 220.263 38.9006 220.114 38.7123L219.492 38.1341C219.452 38.0534 219.371 37.9861 219.303 37.9458C219.154 37.7979 218.911 37.5962 218.844 37.4482L218.343 36.6817C217.884 36.1438 217.37 35.4849 216.911 34.9874L216.059 33.9116C215.478 33.2257 214.748 32.3382 214.005 31.222C214.045 31.2624 213.816 30.9128 213.734 30.8052C213.694 30.7648 213.613 30.7245 213.613 30.6841L212.802 29.8773L212.45 29.3797L212.261 28.9898L212.031 28.6401L211.761 28.2233L211.491 27.7257L210.991 27.0399L210.72 26.6499L210.45 26.3003L210.22 25.8834L209.99 25.6144L209.571 24.7269L209.382 23.8394L209.301 23.4494L209.26 23.0997L209.301 22.9518L209.26 22.7636C209.409 22.1046 209.45 22.0374 209.842 21.7281L210.382 21.3381C210.964 20.8002 211.734 20.4506 212.504 20.3027C212.775 20.222 213.194 20.1816 213.545 20.1547C213.856 20.0741 215.018 19.8454 214.978 19.8858C215.167 19.8454 215.397 19.7648 215.708 19.7379L215.856 19.6572L216.357 19.3075L216.708 19.1865L217.059 19.0386L217.451 18.81L218.033 18.6217C218.181 18.5814 218.343 18.5007 218.425 18.4738L218.614 18.4335L219.033 18.2049L219.722 17.8552L219.911 17.7342L220.33 17.5056L220.79 17.1963L221.371 17.008L222.493 16.5105C222.493 16.5105 222.642 16.4701 222.763 16.4298C222.844 16.4298 222.885 16.4298 222.912 16.3894C223.061 16.2415 223.534 15.8919 225.696 15.1657L225.845 15.0178L226.778 14.3992L226.967 14.1706V14.1303L227.386 13.8613L227.508 13.7806L228.008 13.3234V13.2831L228.359 12.9334L228.4 12.8124L228.589 12.5838L229.048 11.6963C229.238 11.0104 229.319 10.7684 229.44 10.1632C229.44 10.0153 229.4 9.74637 229.292 9.62534L228.602 8.81849L228.251 8.46886L227.791 8.15956L227.021 7.47374L227.062 7.51408L226.67 7.24513L226.318 7.1241L225.899 6.73412H225.818L224.926 6.2769L223.845 5.88693C223.764 5.88693 223.723 5.84659 223.345 5.73901C223.196 5.73901 223.034 5.65832 222.926 5.65832L222.534 5.5104C222.452 5.5104 222.344 5.47005 222.304 5.47005C221.912 5.38937 221.641 5.32214 221.263 5.12043C221.182 5.12043 220.952 5.03973 220.871 5.03973C220.682 5.03973 220.452 4.9994 220.33 4.95905H219.56L219.29 4.91871L219.019 4.83802L218.668 4.69011C218.587 4.73045 218.479 4.77079 218.438 4.77079L218.046 4.69011H217.897L217.005 4.60941L216.613 4.48839L216.343 4.30013C216.262 4.30013 216.194 4.21944 216.113 4.21944H215.721L215.451 4.13875C215.37 4.13875 215.262 4.09841 215.181 4.09841L213.937 3.95049C213.816 3.95049 213.707 3.99083 213.626 3.99083H213.234L212.923 3.91015H212.423L212.112 3.82946L210.761 3.52017L209.179 3.37225C207.476 3.22432 205.773 3.06295 204.084 2.98227C204.043 2.98227 204.003 3.02261 203.962 3.02261C203.611 3.06295 203.232 3.10329 202.421 3.02261C202.029 2.90158 201.84 2.90158 201.61 2.87468H200.88L200.691 2.91502H198.61C198.339 2.91502 198.069 2.91503 197.799 2.95538L197.38 3.03606L196.988 2.99572C196.569 3.03606 195.785 3.0764 195.406 3.0764L194.325 3.19743H194.055L193.744 3.27811C193.554 3.31846 193.284 3.31845 193.054 3.31845L192.433 3.3588C192.284 3.3588 192.041 3.39914 191.851 3.43949C191.703 3.47983 191.392 3.56051 191.23 3.56051L190.838 3.68154H190.527C190.446 3.68154 190.378 3.64119 190.338 3.64119C190.256 3.64119 190.067 3.68154 189.946 3.72188C189.797 3.80257 189.445 3.84291 189.054 3.86981L188.202 4.01773H188.013C188.134 3.8967 187.242 4.13876 186.81 4.24634C186.35 4.32702 185.877 4.39425 185.337 4.59596C184.796 4.71699 183.755 5.05318 182.904 5.32213L181.741 5.67177L180.809 6.06175L180.727 6.14243L179.998 6.41139L178.376 7.17789L177.754 7.52752L177.362 7.75614L176.632 8.25369L176.713 8.2268ZM200.177 22.2257C200.597 21.6474 201.137 20.9885 201.651 20.4237V20.464L202.34 19.4286L202.651 19.0386L203.002 18.541C203.394 18.0031 203.692 17.5056 203.976 17.2366C204.246 16.8198 204.638 16.2415 204.868 15.8112V15.8515L204.989 15.5826L205.179 15.354C205.179 15.2733 205.26 15.1254 205.26 15.085L205.408 14.7354L205.719 14.0092V14.0496C205.719 14.0496 205.76 13.9285 205.76 13.9017C205.881 13.5924 205.908 13.3234 206.219 12.7452L206.341 12.4762L206.76 11.8576C207.03 11.5887 207.422 11.1315 208.112 11.4676C208.612 11.7366 208.801 12.0056 208.531 12.9334L208.112 13.4713L208.193 13.3906L207.841 14.3858L207.179 15.3136L206.828 15.7709L206.679 15.9188C206.638 15.9995 206.638 16.0667 206.638 16.107L205.976 16.9542L205.287 17.8418L204.787 18.42C204.705 18.6486 204.597 18.8369 204.516 19.0386L203.705 20.1144H203.746L203.354 20.733V20.6926L203.205 20.8809L202.854 21.3381L202.394 21.7281L202.475 21.6878C202.354 21.876 202.164 22.0374 202.056 22.2257L199.894 24.7672L199.704 25.0765L199.515 25.3455L199.326 25.5741L198.704 26.4213L198.515 26.6095V26.6499C198.366 26.9188 198.123 27.2281 197.934 27.4164L197.515 27.914L197.285 28.0619L197.096 28.2098C197.055 28.2905 196.947 28.3981 196.907 28.4384L196.285 29.4335L195.663 30.3883L195.203 31.1145L195.244 31.0741L194.784 32.0692L194.433 32.3785L194.163 32.7685L194.244 32.6878L194.163 32.9568L193.541 33.804L193.311 34.1536L193.081 34.8394L192.933 35.2563L192.581 35.8345C192.041 36.4531 192.162 36.4128 192.081 36.5204H192.122C192 36.7086 191.892 36.9103 191.703 37.139L190.973 38.6047L190.784 38.8737H190.824C190.635 39.1023 190.473 39.3309 190.405 39.5326L189.986 40.2588L189.675 40.7563L189.445 41.2136V41.1732L188.945 42.3969L188.864 42.5852L188.716 43.0424C188.364 44.3065 187.945 45.0461 187.323 45.1537C186.904 45.194 185.972 44.8444 185.931 44.3065C185.891 43.8493 186.202 43.0693 186.512 42.2625C186.661 41.9128 186.783 41.5363 186.904 41.227H186.864L186.945 40.9984L187.526 39.8823L187.486 39.9226L187.607 39.694L187.837 39.3443L188.148 38.8064L188.107 38.8468L188.689 37.6903L188.878 37.502L189.148 37.0852L190.148 35.5118H190.108C190.338 35.1218 190.5 34.9739 190.73 34.5839L191.351 33.7771L192.662 31.8137C192.662 31.7331 192.703 31.6658 192.703 31.6255L193.325 30.8993V30.9397L193.717 30.3614C193.717 30.3614 194.028 29.9445 194.176 29.7025L194.447 29.3528L194.568 29.1646L195.028 28.7074L196.46 26.9054C197.123 26.0985 197.772 25.332 198.393 24.5252L198.312 24.6059C198.353 24.4848 198.461 24.3773 198.501 24.2562L198.691 23.8394L199.623 22.8039L200.083 22.3467L200.272 22.1988L200.177 22.2257ZM194.109 32.9971L194.068 33.145C194.379 32.6475 194.298 32.7551 194.109 32.9971Z" fill="#939598"/>
<path d="M237.631 32.1904L237.172 32.54L236.631 32.7686L236.32 32.8493L236.05 33.0375L235.928 33.1182C235.78 33.1586 235.577 33.2662 235.428 33.3065L235.036 33.5351L234.847 33.6158L234.117 33.9654L233.968 34.0864L233.347 34.4764L233.036 34.5975C233.036 34.5975 232.847 34.7185 232.806 34.7185L232.265 35.0278L231.995 35.1488L231.725 35.2295L231.103 35.3505L230.562 35.6195L230.022 35.7002L229.481 35.6598L229.021 35.7808L227.981 35.5926C227.589 35.4715 227.291 35.2429 227.021 34.8664L226.832 34.6378L226.872 34.3285C226.832 34.0596 226.872 33.562 226.994 33.2124V32.9838L227.264 32.2172L227.575 31.4507C227.575 31.4507 227.656 31.3028 227.656 31.2221L227.967 30.6842L228.237 30.3749L228.278 30.2539L228.629 29.9446L228.819 29.6353C228.9 29.4874 229.048 29.326 229.13 29.1781L229.251 28.9092L229.4 28.6402L229.522 28.5192C229.643 28.3713 229.751 28.1292 229.873 28.0216L230.224 27.5241L230.346 27.3358L230.806 26.7979L231.427 25.9507L231.617 25.4935L232.117 24.8749L232.306 24.606L232.455 24.2967L232.644 24.1487L233.144 23.3822L233.536 22.8443L233.955 22.4544C234.185 22.2258 234.766 21.9165 235.347 21.9165C235.617 21.9971 235.928 22.0375 236.239 22.414V22.683L236.158 23.2209L235.807 23.6108L235.347 24.1084L234.806 24.5253L234.225 25.0228L234.104 25.2918L233.374 26.0179L232.982 26.5558L232.711 26.9458L232.441 27.2148C232.401 27.3358 232.401 27.403 232.401 27.4434L232.009 27.672C232.009 27.672 231.927 27.8199 231.887 27.9006L231.306 28.5595L230.765 29.1781L230.495 29.5681L230.305 29.8774L229.886 30.6035L229.697 30.7918C229.549 30.9397 229.549 30.9801 229.508 31.0608L229.278 31.7197L229.197 31.908L228.846 32.6745L228.656 33.441V33.5889L228.575 34.0461V34.1671H228.846L229.116 34.2075L229.265 34.1671L229.494 34.1268L229.724 34.1671H229.914C230.184 34.1268 230.414 34.0192 230.724 33.9789L231.076 33.8578L231.427 33.7772L231.549 33.6965L232.171 33.3468L232.319 33.2258L233.252 32.9972L233.874 32.7686L234.185 32.6879L235.455 32.0693L235.766 31.9214L236.388 31.5718L236.888 31.2625L237.199 31.0742L237.429 31.0339L237.658 30.8859L238.158 30.5767L238.429 30.4287L238.78 30.2001L238.929 30.0522L239.551 29.7429L239.74 29.595L240.673 29.1378L241.024 28.9495L241.105 28.9092L241.375 28.7209H241.456L241.646 28.5326L241.916 28.4116L242.065 28.2637L242.484 28.0351L242.754 27.8872L242.903 27.8065L243.133 27.6854C243.403 27.5375 243.633 27.3358 243.984 27.1475L244.214 26.9593L244.633 26.9996L244.944 27.2686L244.984 27.6182L244.565 28.0754L244.335 28.1561L244.106 28.3444L243.484 28.6537L242.281 29.3798L241.93 29.6084L241.429 30.0253L241.159 30.106L240.97 30.1867C240.281 30.6439 239.578 31.1415 238.915 31.5314L238.686 31.76L238.537 31.8407L238.118 31.9886L237.969 32.1097L237.658 32.2576L237.631 32.1904ZM241.375 13.189C241.416 13.4176 241.456 13.6462 241.375 14.0362C241.186 14.4531 240.835 14.8834 239.983 15.3406L239.524 15.6903L239.375 15.8113C239.186 15.9592 238.875 16.1609 238.713 16.3088L238.023 16.9274L237.402 17.425L237.131 17.6132C236.942 17.7343 236.672 17.7343 236.401 17.7343L236.32 17.2367L236.361 17.0888L236.901 15.8247L237.05 15.5558L237.591 14.7489L237.902 14.3321L238.05 14.1438L238.402 13.7538L238.672 13.5656L238.902 13.3773L239.483 12.799L239.943 12.5704L240.254 12.4897C240.916 12.5704 241.186 12.8394 241.335 13.1487L241.375 13.2294V13.189Z" fill="#939598"/>
<path d="M247.714 30.8323L247.796 30.7919L248.255 30.3751L249.647 29.2186L249.836 29.0975L250.958 28.1024L251.621 27.5645L251.85 27.2956L252.391 26.9459L253.513 26.0584L253.662 25.9374L253.972 25.7088L254.162 25.5205L254.351 25.3726L254.621 25.1843L254.77 24.9961L255.121 24.6464V24.6061L256.162 23.6782L256.311 23.5975V23.5168L257.744 22.2931L257.892 22.2528L258.392 21.8628L258.514 21.7149L258.906 21.4459C258.906 21.4459 258.987 21.3652 258.987 21.3249L259.217 21.0559L260.379 19.8994H260.46L260.731 19.5902L261.934 18.4337L262.353 17.8958L262.934 17.2368L263.434 16.8872L263.704 16.9275L263.894 17.0755L263.934 17.2234L263.894 17.452L263.664 17.9092C263.353 18.3261 262.893 18.8371 262.461 19.2943L261.839 19.9532V20.0339L261.339 20.5315L261.069 20.7601L260.717 21.177L260.325 21.5266L260.204 21.6476L260.163 21.7283C260.082 21.8493 259.852 22.1452 259.852 22.1855L259.622 22.2662L259.541 22.3066L258.811 22.9924L258.69 23.0327L258.5 23.221L258.108 23.6379L256.865 24.875L256.716 24.9154L256.527 25.0364C255.716 25.7357 254.783 26.6098 253.972 27.309L253.702 27.6183L253.162 28.0083L252.702 28.5462L252.432 28.7748L252.472 28.7345L252.013 29.0841L251.621 29.3127L251.391 29.4606L251.242 29.6086L251.053 29.7296L250.702 30.0792C250.31 30.4289 249.85 30.8054 249.539 31.1954L248.688 32.1232L248.296 32.4325L247.404 33.1587L247.255 33.3066L247.066 33.5352L246.714 34.0328L246.566 34.0731L246.417 34.1538L246.187 34.3824C246.147 34.5034 246.106 34.7724 246.106 34.7724L245.755 34.8127L245.484 35.0817L245.363 35.122L245.214 35.27H245.092L244.781 35.5389L244.16 35.6868L243.93 35.7272L243.619 35.7675L243.47 35.8079L243.281 35.7272L243.132 35.6465L242.673 35.5658L242.592 35.2162L242.47 34.8262C242.47 34.8262 242.43 34.7052 242.43 34.6783C242.389 34.5303 242.348 34.369 242.348 34.1404L242.308 33.4142L242.348 32.7956L242.389 32.5267L242.47 31.9484L242.511 31.8005L242.592 31.6122L242.632 31.3433L242.862 30.5768L243.011 30.1599L243.24 29.232C243.24 29.1513 243.281 29.1513 243.281 29.0841L243.362 28.8151L243.551 28.4655C243.632 28.1966 243.781 27.8469 243.862 27.5376C243.903 27.2283 244.011 26.919 244.051 26.6098L244.241 25.7626L244.511 24.875L244.633 24.2968L244.944 23.6379L245.484 22.9789C245.714 22.7907 245.984 22.562 246.525 22.562C247.187 22.562 247.336 23.5975 247.214 24.0682L246.822 25.144L246.241 26.3677L246.092 26.7846L246.011 27.0132L245.741 27.4301L245.552 27.699L245.511 27.7797L245.2 28.5462L245.16 28.6672C245.079 28.7479 245.038 28.8555 245.011 28.9362L244.93 29.0169C244.93 29.1379 244.889 29.2858 244.889 29.3665L244.579 29.9447L244.498 30.0927L244.349 30.5902C244.349 30.6709 244.308 30.7785 244.308 30.8592C244.078 31.7064 243.646 33.1318 243.768 33.468H243.808L244.349 33.3201L244.93 32.8629L245.7 32.446L245.849 32.3653L246.309 31.9753L247.039 31.2492L247.66 30.7919L247.714 30.8323Z" fill="#939598"/>
<path d="M259.393 30.2943C259.393 30.2943 259.352 30.2943 259.352 30.3347L258.96 31.1012C258.96 31.3702 258.919 31.908 258.919 32.1367C258.879 32.2577 258.879 32.5266 259.001 32.7552C259.082 32.8763 259.271 32.9032 259.852 33.0242L260.393 33.1721H260.893L261.474 33.0914L264.177 32.4728L264.84 32.2039L266.232 31.7467L266.583 31.5584L266.813 31.5181L269.097 30.5498L269.516 30.3616L269.935 30.2809L271.246 29.8237L271.368 29.7833C272.057 29.474 272.639 29.1648 273.179 28.9361L274.72 28.21L275.261 27.941L275.409 27.9007L275.801 27.7124L276.383 27.5242L277.545 26.9863L277.775 26.798L279.559 25.7222L280.329 25.3053C280.6 25.117 280.64 25.1171 280.789 25.0364C280.938 24.9153 281.059 24.8884 281.33 24.8481C281.559 24.8481 281.87 24.8481 281.992 25.1171C282.114 25.3457 281.843 25.776 281.573 25.9239L281.262 26.0718L281.032 26.2197L280.221 26.7173L279.721 27.0669L279.64 27.1073L278.829 27.5645L278.518 27.7528L278.248 27.9007L278.059 28.0486L277.829 28.1293H277.748L276.748 28.6269C276.666 28.6672 276.518 28.7748 276.518 28.7748L276.126 28.963C276.045 29.0034 275.774 29.111 275.626 29.232L274.152 29.8909L273.693 30.1195C273.382 30.2674 273.071 30.4692 272.76 30.5767L272.639 30.6978L270.854 31.545L269.881 31.9349L269.53 32.0156L269.178 32.1635C268.719 32.3518 268.178 32.5535 267.665 32.7418C267.475 32.8225 267.273 32.9704 267.083 33.0511L265.84 33.6697L265.069 33.8176L264.448 34.0059L263.785 34.2345L263.123 34.3555L262.893 34.4362C262.745 34.5169 262.474 34.5572 262.123 34.6244L261.461 34.8127L261.231 34.853L260.501 35.001L259.771 35.0817L258.811 34.9337L257.838 34.4765L257.297 33.71L257.108 33.2125L256.987 32.6746L256.946 32.0963L256.987 31.787V31.4374L257.257 30.4692L257.527 29.9716C257.608 29.743 257.716 29.622 257.798 29.3934L258.217 28.7075L258.717 28.1293L259.406 27.3224L259.947 26.9325L260.406 26.5156L260.758 26.2063L261.298 25.7087L261.379 25.6281C261.42 25.5474 261.528 25.4801 261.569 25.3994L261.88 25.1305L262.19 24.9422L262.772 24.6329L262.853 24.5926L263.001 24.4716C263.812 23.8933 264.664 23.2344 265.597 22.6965L266.056 22.3469L267.056 21.8493L267.408 21.661L267.597 21.6207L268.097 21.54C268.719 21.3518 268.989 21.1904 269.259 21.1231L270.111 20.9349H270.503C270.625 20.9349 270.733 20.8945 270.854 20.8945H271.436C271.584 20.8945 271.828 20.9349 271.976 20.9349C272.206 21.0156 272.328 21.0828 272.395 21.1231L272.814 21.3518C273.044 21.54 273.233 21.7014 273.314 22.0107L273.395 22.4275L273.436 22.5755L273.395 22.9923L273.274 23.3823L273.125 23.8799L272.625 24.4581L272.165 24.8078L271.774 25.1574L271.314 25.4667L270.111 26.1929L269.881 26.3811L269.651 26.4215C268.719 27.04 267.867 27.5376 266.989 27.9948L266.799 28.1159L265.678 28.6538L265.178 29.0034L264.137 29.4606L263.447 29.7295L262.285 29.9178L261.623 29.9582H261.271L260.771 29.7295L260.731 29.3396L260.771 29.0303C261.393 28.3041 261.731 28.1427 262.353 27.9141C262.393 27.9141 262.474 27.8335 262.501 27.8335C262.893 27.7931 263.393 27.6855 263.772 27.6452L264.191 27.5242L264.583 27.4031L264.975 27.2552L265.826 26.9863L266.678 26.529L267.489 26.1794C267.881 25.9911 268.421 25.6415 268.8 25.4532L269.07 25.3053L269.462 24.996L271.044 23.7723C271.044 23.7723 271.233 23.584 271.273 23.5034C271.3 23.4496 271.314 23.4003 271.314 23.3554L271.395 23.1672L271.584 22.6293C271.584 22.6293 271.503 22.5889 271.503 22.5486L271.192 22.3603C271.111 22.32 271.071 22.2796 271.044 22.2796H270.625L270.354 22.32L270.125 22.3603C269.273 22.5486 268.381 22.9386 267.8 23.2478L267.529 23.3689L267.07 23.5975L266.989 23.6782L266.137 24.0681L265.988 24.1488L265.299 24.5657L264.799 24.9826L264.177 25.3322L264.056 25.3726L263.434 25.8298C263.353 25.9105 263.285 25.9105 263.204 25.9777C263.164 26.0584 263.055 26.166 263.015 26.2063L262.434 26.7442L262.163 27.0132L261.744 27.4031L261.244 27.941L260.852 28.3579L260.582 28.6269C260.501 28.7075 260.433 28.8958 260.352 28.9765L260.082 29.3665L259.663 29.7833L259.352 30.2809L259.393 30.2943Z" fill="#939598"/>
<path d="M279.491 28.9899L279.64 28.8688L280.302 28.3309L280.654 27.9813L281.073 27.672L281.735 27.2551L282.465 26.6769L283.317 26.0583L284.52 25.2111L284.668 25.0901L285.087 24.8615L285.358 24.5925L285.547 24.5522C285.668 24.4715 285.817 24.4043 285.898 24.3236L286.669 23.8664L287.02 23.5167L287.25 23.3688L287.791 23.1805L288.21 22.7906L288.71 22.4813L289.75 22.0644H289.791C289.791 22.0644 290.142 21.9165 290.25 21.8358C290.399 21.7551 290.669 21.6475 291.332 21.2575L292.062 20.9886L293.224 20.491L293.643 20.3431L293.954 20.2221L294.414 20.1817C295.103 19.9935 295.765 19.8724 296.346 19.9128C296.468 19.9531 296.576 19.9935 296.698 19.9935C297.009 20.1414 297.238 20.2624 297.387 20.4103C297.468 20.491 297.657 20.6793 297.698 20.8003L297.847 21.2172L297.766 22.172L297.617 22.6292L297.428 22.9385L297.117 23.2478L296.806 23.436L296.495 23.5167L296.265 23.5571L295.954 23.5167L295.562 23.1267L295.522 22.8981L295.481 22.7099V22.5216L295.4 22.2527L295.36 21.9837L295.279 21.7148H294.968L294.427 21.9434L294.157 21.9837L293.967 21.9434L293.548 22.1316L293.197 22.172C292.737 22.2527 292.224 22.4006 291.805 22.4813C291.305 22.7099 290.724 22.9788 290.223 23.1671C290.183 23.2074 290.034 23.2881 289.994 23.2881L289.804 23.4764L288.264 24.2832L287.723 24.6329L287.453 24.8615L286.723 25.2514L286.574 25.3321L286.223 25.6414L285.641 26.0314L285.412 26.26L284.29 26.9862L283.29 27.8737L282.357 28.7612L282.087 28.9495L281.627 29.4471L281.046 29.9446L280.735 30.1329C280.654 30.2136 280.505 30.3212 280.465 30.4018L280.113 30.7111L279.762 31.1011L279.573 31.2894L279.383 31.4373L278.991 31.7869L278.87 31.9752L278.64 32.1635L278.491 32.3517L278.099 32.7014L277.207 33.8175L276.626 34.6647L276.275 35.0816L275.774 35.4985C275.626 35.5791 275.382 35.6195 275.193 35.6195C274.842 35.6195 274.571 35.4716 274.504 35.2295C274.382 35.0816 274.274 34.3823 274.504 33.8848L274.815 33.1989L275.274 32.4324L275.626 32.0156L275.896 31.6659L276.356 31.0473L276.626 30.6573L276.856 30.3077L277.004 29.9581L277.396 29.4605L277.478 29.1916L277.937 28.6537L278.059 28.5326C278.207 28.3444 278.37 27.9947 278.518 27.8065L278.748 27.4568L279.167 26.8383L279.518 26.2197L279.64 26.0314L279.789 25.6818L279.937 25.4935V25.4532L280.248 24.727L280.519 24.1891L280.938 23.4629L281.33 22.5082L281.37 22.3602L281.519 22.1316L282.019 21.6341L282.641 21.2172L282.871 21.1365L283.141 21.1768C283.682 21.4055 283.871 21.6744 283.952 21.9434V22.172C283.952 22.7502 283.6 23.2478 283.263 23.6781L282.452 24.5656L282.1 24.9556L282.019 25.0766L281.87 25.3456C281.87 25.3456 281.641 25.6952 281.451 25.9642L280.911 26.7307L280.762 27.04L280.451 27.5375L280.14 27.8872V27.9275L279.829 28.4251L279.437 29.0033L279.491 28.9899Z" fill="#939598"/>
<path d="M308.673 29.111L308.984 28.6941L309.295 28.3445H309.335L309.727 27.9276L309.849 27.7797H309.809L309.349 27.9007L308.268 28.3176L307.876 28.3983L306.673 29.0975L306.362 29.2858L306.092 29.4068L305.821 29.5548L304.929 29.9716L303.929 30.5499L303.659 30.6709L302.969 30.9802L302.929 31.0205L302.388 31.3298L302.239 31.3702C302.01 31.4912 301.78 31.6795 301.55 31.7871L301.32 31.935L300.928 32.2039L300.699 32.2846C300.699 32.2846 300.428 32.4056 300.388 32.4056C300.117 32.5536 299.847 32.7149 299.577 32.9032L298.847 33.2932H298.495L298.036 33.4814L297.765 33.4411C297.684 33.5218 297.617 33.4814 297.414 33.5621C297.333 33.6025 297.225 33.7504 297.225 33.7504L296.454 34.0193L296.184 34.0597L295.522 34.3286L295.292 34.369L295.022 34.3286C294.251 34.4093 293.629 34.248 293.4 33.6428C293.21 33.1049 293.4 32.4191 293.67 31.7602L293.859 31.2223L294.089 30.9533C294.089 30.9533 294.13 30.913 294.13 30.8726L294.44 30.4154L294.711 30.0254L295.103 29.5682L295.562 29.111L295.711 28.9227L296.062 28.6538L296.481 28.2638L298.266 26.6904L298.806 26.2736L299.077 26.0046L299.536 25.6146L299.617 25.5743L299.928 25.386L300.699 24.7002L301.361 24.1623L301.631 23.9337L302.212 23.6244L302.253 23.5841L302.604 23.4361L302.726 23.3958C302.848 23.3555 302.956 23.2479 303.348 23.1269L304.74 22.441L305.091 22.2931L305.321 22.2124C305.551 22.1721 305.74 22.0645 305.983 22.0242L306.132 21.9031L306.524 21.8628L306.754 21.7821L307.024 21.7014H307.605L308.457 21.8224C308.457 21.8224 308.606 21.9031 308.646 21.9031L309.065 22.2528L309.106 22.6427L309.025 22.9924C308.903 23.3017 308.362 23.9875 307.551 23.9203C307.47 23.9203 307.362 23.9606 307.281 23.9606H305.767L305.497 24.0009L305.267 24.0816L304.767 24.2296L304.105 24.4178L303.253 24.7674L302.253 25.3054L302.064 25.4264L301.564 25.776L299.82 27.0401L299.698 27.1611L299.347 27.5511L298.995 27.9007L298.725 28.0486L298.414 28.3176L298.333 28.3983L297.941 28.7076V28.7883L297.549 29.2455L297.09 29.6624V29.7027L296.86 29.9716L296.711 30.1599L296.63 30.2809L296.59 30.402L296.36 30.6306L296.211 30.8188L295.792 31.3971L295.562 31.8946L295.441 32.1232L295.251 32.3519L295.13 32.4998L295.089 32.5805V32.8494C295.36 32.7687 295.508 32.6208 295.792 32.5401L296.144 32.4594L296.725 32.2712L296.995 32.2308L298.347 31.6122L298.536 31.4912L298.887 31.3029L299.387 31.155L299.617 31.034C299.928 30.913 299.928 30.9533 300.59 30.5768L300.861 30.3885L301.212 30.2002L301.334 30.0792L301.564 30.0389L302.023 29.8103L302.334 29.6624L302.604 29.5144L303.645 28.9765L303.915 28.7883L305.078 28.2504L305.227 28.21L305.889 27.9007L306.348 27.5511L306.97 27.2418L307.159 27.0939L307.47 26.9056L307.659 26.7577L308.119 26.4484L308.7 26.0988L309.903 25.8298H310.444L310.863 25.9105L311.255 26.1391L311.295 26.1794C311.485 26.2601 311.714 26.408 311.958 26.798V27.0266L311.917 27.1477L311.768 27.3763L311.687 27.7662L311.336 27.9949L311.187 28.1428L310.836 28.6403L310.525 28.9093L309.714 29.8372L309.633 29.9582L309.241 30.4961L309.119 30.7247L309.038 30.913C308.998 31.034 308.916 31.034 308.916 31.0609C309.038 31.0609 309.106 31.0205 309.268 31.0205L309.66 30.9802H309.809L310.309 30.8592L310.728 30.7785L310.957 30.6978L311.458 30.5768L312.809 30.1868L312.998 30.1061L313.35 30.0254L313.809 29.8775L314.161 29.7296L314.31 29.6892L314.458 29.5682L315.81 29.2186L316.161 29.0975L316.283 28.9765L318.175 28.4386L318.527 28.3579L319.297 28.1293C319.297 28.1293 319.567 28.1293 319.608 28.1697C319.73 28.21 319.959 28.2504 320 28.2504V28.9093L319.608 29.2589H319.189L318.608 29.4068L318.148 29.6355H317.918L317.378 29.7834L317.148 29.8641L316.215 30.2809L315.553 30.5902L314.783 30.8188L313.931 31.1281L313.701 31.2088L313.553 31.2492L313.242 31.4778L312.89 31.5988L312.661 31.6795L312.35 31.8677L312.201 31.9484L311.241 32.3384L310.93 32.4863L309.89 32.8763L309.471 33.0242C309.39 33.0646 309.241 33.1721 309.2 33.1721L308.619 33.3201H308.119L307.768 33.2797L307.578 33.199L307.308 33.1184L306.957 32.7284V32.3384C306.916 32.1501 306.876 31.9215 306.957 31.7602L307.146 31.3433V31.2626L307.497 30.8054L307.619 30.6171L307.93 30.2271L308.7 29.1513L308.673 29.111Z" fill="#939598"/>
<path d="M57.9718 69.8165C57.9718 70.5965 57.5798 70.9999 56.7823 70.9999H52.7409C51.9705 70.9999 51.592 70.6099 51.592 69.8165V59.2871C51.592 58.4937 51.9705 58.1038 52.7409 58.1038H56.7823C57.5663 58.1038 57.9718 58.4937 57.9718 59.2871V62.2994H56.0389V59.7578H53.5249V69.3324H56.0389V66.6295H57.9718V69.8165V69.8165Z" fill="#9A7194"/>
<path d="M67.9062 70.9999H65.9734V58.1038H67.9062V70.9999Z" fill="#9A7194"/>
<path d="M82.5715 70.9999H80.5576L78.422 65.0158V63.8593H80.3278V59.7712H77.8813V70.9999H75.9485V58.1038H81.0847C81.8687 58.1038 82.2471 58.4937 82.2471 59.2871V63.9669C82.2471 64.5048 82.0579 64.8679 81.6929 65.0158C81.4902 65.0965 81.0712 65.1368 80.4359 65.1368L82.5715 70.973V70.9999Z" fill="#9A7194"/>
<path d="M96.6826 69.8165C96.6826 70.5965 96.2906 70.9999 95.4932 70.9999H91.3842C90.6002 70.9999 90.2083 70.6099 90.2083 69.8165V58.1038H92.1411V69.3324H94.7498V58.1038H96.6826V69.8165V69.8165Z" fill="#9A7194"/>
<path d="M110.496 69.8165C110.496 70.5965 110.104 70.9999 109.307 70.9999H105.63C104.846 70.9999 104.468 70.6099 104.468 69.8165V66.6429H106.401V69.3324H108.563V58.1038H110.496V69.8165V69.8165Z" fill="#9A7194"/>
<path d="M125.053 70.9999H123.134L122.742 68.5525H120.323L119.931 70.9999H118.025V70.973L120.539 58.1038H122.58L125.067 71.0134L125.053 70.9999ZM122.472 66.8984L121.526 61.0891L120.579 66.8984H122.472Z" fill="#9A7194"/>
<path d="M139.138 70.9999H137.435L134.326 62.8911C134.407 63.281 134.447 63.5903 134.447 63.819V70.9999H132.555V58.1038H134.258L137.367 66.0512C137.286 65.6612 137.245 65.352 137.245 65.1234V58.1038H139.138V70.9999Z" fill="#9A7194"/>
<path d="M153.668 69.8165C153.668 70.5965 153.276 70.9999 152.492 70.9999H148.288C147.518 70.9999 147.139 70.6099 147.139 69.8165V59.2871C147.139 58.4937 147.518 58.1038 148.288 58.1038H152.492C153.276 58.1038 153.668 58.4937 153.668 59.2871V69.8165ZM151.735 69.3324V59.7578H149.072V69.3324H151.735Z" fill="#9A7194"/>
<path d="M177.862 65.1234C177.862 65.9302 177.47 66.3202 176.672 66.3202H173.537V70.9865H171.604V58.0903H176.672C177.456 58.0903 177.862 58.4803 177.862 59.2737V65.1099V65.1234ZM175.902 64.6662V59.7578H173.537V64.6662H175.902Z" fill="#9A7194"/>
<path d="M190.77 70.9999H185.674V58.1038H187.607V69.2786H190.756V70.9999H190.77Z" fill="#9A7194"/>
<path d="M204.922 70.9999H203.002L202.611 68.5524H200.191L199.799 70.9999H197.893V70.973L200.407 58.1037H202.448L204.935 71.0133L204.922 70.9999ZM203.989 55.3739L201.583 57.5524H200.191V57.4851L201.61 55.3066H203.989V55.3873V55.3739ZM202.34 66.8984L201.394 61.0891L200.448 66.8984H202.34V66.8984Z" fill="#9A7194"/>
<path d="M218.668 69.8165C218.668 70.5965 218.276 70.9999 217.492 70.9999H213.599C212.815 70.9999 212.437 70.6099 212.437 69.8165V66.7505H214.37V69.3728H216.735V66.8446L212.856 63.1869C212.572 62.918 212.437 62.5683 212.437 62.1515V59.2871C212.437 58.4937 212.829 58.1038 213.599 58.1038H217.492C218.276 58.1038 218.668 58.4937 218.668 59.2737V62.1515H216.735V59.7175H214.37V62.0439L218.249 65.6882C218.533 65.9571 218.668 66.3067 218.668 66.7371V69.8031V69.8165Z" fill="#9A7194"/>
<path d="M232.279 59.8116H230.143V70.9999H228.21V59.8116H226.075V58.1038H232.279V59.8116V59.8116Z" fill="#9A7194"/>
<path d="M241.673 70.9999H239.74V58.1038H241.673V70.9999Z" fill="#9A7194"/>
<path d="M256.081 69.8165C256.081 70.5965 255.689 70.9999 254.892 70.9999H250.85C250.08 70.9999 249.701 70.6099 249.701 69.8165V59.2871C249.701 58.4937 250.08 58.1038 250.85 58.1038H254.892C255.676 58.1038 256.081 58.4937 256.081 59.2871V62.2994H254.148V59.7578H251.634V69.3324H254.148V66.6295H256.081V69.8165V69.8165Z" fill="#9A7194"/>
<path d="M270.571 69.8165C270.571 70.5965 270.179 70.9999 269.395 70.9999H265.191C264.421 70.9999 264.042 70.6099 264.042 69.8165V59.2871C264.042 58.4937 264.421 58.1038 265.191 58.1038H269.395C270.179 58.1038 270.571 58.4937 270.571 59.2871V69.8165ZM268.638 69.3324V59.7578H265.975V69.3324H268.638Z" fill="#9A7194"/>
<path d="M7.5691 16.6854C7.5691 17.2906 7.39339 17.7747 7.02845 18.1109C6.66351 18.4605 6.17692 18.6353 5.55516 18.6353H2.39233V8.29419H5.55516C6.1634 8.29419 6.66351 8.46902 7.02845 8.81865C7.39339 9.16829 7.5691 9.6524 7.5691 10.2575V16.6854ZM6.01472 16.4299V10.4861C6.01472 9.9079 5.71736 9.6255 5.10912 9.6255H3.96023V17.304H5.06857C5.70384 17.304 6.01472 17.0082 6.01472 16.4299V16.4299Z" fill="#9A7194"/>
<path d="M16.8142 18.6353H15.1923L13.4757 13.8346V12.9067H15.003V9.6255H13.0432V18.6353H11.4888V8.29419H15.6113C16.233 8.29419 16.5439 8.61694 16.5439 9.24897V13.0143C16.5439 13.4446 16.3952 13.727 16.0979 13.8615C15.9357 13.9287 15.5977 13.9556 15.0841 13.9556L16.8007 18.6353H16.8142Z" fill="#9A7194"/>
<path d="M21.8558 18.6354H20.3555V17.0352H21.8558V18.6354Z" fill="#9A7194"/>
</svg>
